{"glyphs":{"0":{"ha":1157,"x_min":0,"x_max":0,"o":"m 547 1093 b 160 932 396 1093 267 1040 b 0 547 53 825 0 697 l 0 547 b 160 160 0 396 53 267 b 547 0 267 53 396 0 l 547 0 b 932 160 697 0 825 53 b 1093 547 1040 267 1093 396 l 1093 547 b 932 932 1093 697 1040 825 b 547 1093 825 1040 697 1093 z m 547 875 l 547 875 b 778 778 637 875 714 843 b 875 547 843 714 875 637 l 875 547 b 778 315 875 456 843 379 b 547 219 714 251 637 219 l 547 219 b 315 315 456 219 379 251 b 219 547 251 379 219 456 l 219 547 b 315 778 219 637 251 714 b 547 875 379 843 456 875 z "},"1":{"ha":463,"x_min":0,"x_max":0,"o":"m 0 1000 l 0 772 l 109 804 l 109 0 l 328 0 l 328 1093 z "},"2":{"ha":771,"x_min":0,"x_max":0,"o":"m 399 387 b 580 553 469 432 530 488 b 656 766 631 619 656 690 l 656 766 b 559 997 656 856 624 933 b 328 1093 495 1061 418 1093 l 328 1093 b 96 997 238 1093 160 1061 b 0 766 32 933 0 856 l 0 766 l 219 766 l 219 766 b 251 843 219 795 230 821 b 328 875 272 864 298 875 l 328 875 b 405 843 358 875 384 864 b 437 766 427 821 437 795 l 437 766 b 357 618 437 717 411 668 b 219 510 303 569 257 533 b 32 318 116 448 54 384 l 0 219 l 0 110 l 0 0 l 328 0 l 328 0 l 656 0 l 656 219 l 328 219 l 219 219 b 283 312 219 253 240 284 b 399 387 325 340 364 365 z "},"3":{"ha":806,"x_min":0,"x_max":0,"o":"m 370 492 b 454 434 404 472 432 452 b 488 355 477 416 488 390 b 448 259 488 317 475 285 b 351 219 421 232 389 219 l 351 219 b 264 250 318 219 289 229 b 218 328 240 271 224 297 l 0 302 b 119 87 13 217 52 145 b 351 0 185 29 263 0 l 351 0 b 602 104 449 0 533 35 b 707 355 672 174 707 258 l 707 355 b 690 461 707 391 701 426 b 608 547 678 497 651 525 b 689 638 650 576 677 607 b 707 739 701 670 707 703 l 707 739 b 602 989 707 836 672 919 b 351 1093 533 1058 449 1093 l 351 1093 b 119 1006 263 1093 185 1064 b 0 791 52 948 13 876 l 218 766 b 264 843 224 796 240 822 b 351 875 289 864 318 875 l 351 875 b 448 834 389 875 421 861 b 488 739 475 808 488 776 b 449 666 488 715 475 691 b 367 602 423 641 395 619 b 319 572 346 589 330 579 b 279 547 308 564 295 556 b 318 524 294 538 307 531 b 370 492 329 516 347 506 z "},"4":{"ha":1003,"x_min":0,"x_max":0,"o":"m 366 1093 l 0 219 l 602 219 l 602 0 l 820 0 l 820 219 l 930 219 l 930 437 l 820 437 l 820 875 l 602 875 l 602 437 l 328 437 l 602 1092 z "},"5":{"ha":848,"x_min":0,"x_max":0,"o":"m 366 547 l 366 547 b 487 498 413 547 453 530 b 537 382 520 466 537 427 l 537 382 b 487 267 537 337 520 299 b 366 219 453 235 413 219 l 366 219 b 218 300 301 219 251 246 l 0 231 b 145 64 31 163 79 107 b 366 0 211 21 284 0 l 366 0 b 648 112 476 0 570 37 b 766 382 727 187 766 277 l 766 382 b 648 653 766 488 727 578 b 366 766 570 728 476 766 l 366 766 b 301 762 340 766 319 764 b 241 746 283 759 263 754 l 254 875 l 689 875 l 689 1093 l 56 1093 l 0 525 l 205 492 b 283 539 233 518 259 534 b 366 547 307 544 335 547 z "},"6":{"ha":840,"x_min":0,"x_max":0,"o":"m 382 547 l 382 547 b 498 498 428 547 466 531 b 547 382 531 466 547 428 l 547 382 b 498 267 547 337 531 299 b 382 219 466 235 428 219 l 382 219 b 267 267 337 219 299 235 b 219 382 235 299 219 337 l 219 382 b 267 498 219 428 235 466 b 382 547 299 531 337 547 z m 349 1093 l 66 603 b 54 580 63 598 59 591 b 43 558 49 570 45 562 l 43 558 l 43 558 b 0 382 14 503 0 444 l 0 382 b 112 112 0 277 37 187 b 382 0 187 37 277 0 l 382 0 b 653 112 488 0 578 37 b 766 382 728 187 766 277 l 766 382 b 662 643 766 483 731 570 b 411 764 593 717 510 757 l 600 1093 z "},"7":{"ha":823,"x_min":0,"x_max":0,"o":"m 0 1093 l 0 766 l 219 766 l 219 879 l 465 879 l 191 0 l 420 0 l 766 1093 z "},"8":{"ha":797,"x_min":0,"x_max":0,"o":"m 355 711 b 297 735 333 711 313 719 b 273 793 281 751 273 770 l 273 793 b 297 850 273 815 281 834 b 355 875 313 867 333 875 l 355 875 b 413 850 378 875 397 867 b 437 793 429 834 437 815 l 437 793 b 413 735 437 770 429 751 b 355 711 397 719 378 711 z m 597 615 b 656 793 636 668 656 727 l 656 793 b 568 1005 656 876 626 946 b 355 1093 509 1064 438 1093 l 355 1093 b 143 1005 273 1093 202 1064 b 55 793 84 946 55 876 l 55 793 b 113 615 55 727 74 668 b 0 355 38 544 0 457 l 0 355 b 104 104 0 258 35 174 b 355 0 174 35 258 0 l 355 0 b 606 104 453 0 537 35 b 711 355 676 174 711 258 l 711 355 b 597 615 711 458 673 545 z m 355 492 l 355 492 b 452 452 393 492 425 479 b 492 355 479 425 492 393 l 492 355 b 452 259 492 317 479 285 b 355 219 425 232 393 219 l 355 219 b 259 259 317 219 285 232 b 219 355 232 285 219 317 l 219 355 b 259 452 219 393 232 425 b 355 492 285 479 317 492 z "},"9":{"ha":840,"x_min":0,"x_max":0,"o":"m 382 547 l 382 547 b 267 595 337 547 299 563 b 219 711 235 627 219 666 l 219 711 b 267 826 219 755 235 794 b 382 875 299 859 337 875 l 382 875 b 498 826 428 875 466 859 b 547 711 531 794 547 755 l 547 711 b 498 595 547 666 531 627 b 382 547 466 563 428 547 z m 417 0 l 700 491 b 711 513 703 495 706 502 b 723 536 716 523 720 531 l 723 536 l 723 536 b 766 711 751 590 766 649 l 766 711 b 653 981 766 816 728 906 b 382 1093 578 1056 488 1093 l 382 1093 b 112 981 277 1093 187 1056 b 0 711 37 906 0 816 l 0 711 b 103 450 0 610 34 523 b 355 329 172 376 256 336 l 166 0 z "}," ":{"ha":339,"x_min":0,"x_max":0,"o":""},"!":{"ha":437,"x_min":0,"x_max":0,"o":"m 55 1105 l 83 296 l 256 296 l 284 1105 z m 55 212 l 55 -10 l 284 -10 l 284 212 z "},"\"":{"ha":540,"x_min":0,"x_max":0,"o":"m 0 1093 l 0 875 l 63 875 l 29 718 l 125 718 l 191 875 l 191 1093 z m 246 1093 l 246 875 l 309 875 l 275 718 l 371 718 l 437 875 l 437 1093 z "},"#":{"ha":934,"x_min":0,"x_max":0,"o":"m -10 219 l 153 219 l 124 0 l 288 0 l 317 219 l 481 219 l 452 0 l 616 0 l 646 219 l 809 219 l 831 382 l 667 382 l 696 602 l 860 602 l 881 766 l 718 766 l 761 1093 l 597 1093 l 553 766 l 389 766 l 433 1093 l 269 1093 l 225 766 l 61 766 l 39 602 l 203 602 l 175 382 l 11 382 z m 532 602 l 503 382 l 339 382 l 368 602 z "},"$":{"ha":763,"x_min":0,"x_max":0,"o":"m 328 437 l 328 437 b 405 405 358 437 384 427 b 437 328 427 384 437 358 l 437 328 b 405 251 437 298 427 272 b 328 219 384 230 358 219 l 328 219 b 251 251 298 219 272 230 b 219 328 230 272 219 298 l 219 328 l 0 328 l 0 328 b 70 125 0 252 23 184 b 246 10 117 67 176 28 l 246 -81 l 410 -81 l 410 10 b 586 125 481 28 539 67 b 656 328 633 184 656 252 l 656 328 b 559 559 656 418 624 495 b 328 656 495 624 418 656 l 328 656 b 251 688 298 656 272 667 b 219 766 230 709 219 735 l 219 766 b 251 843 219 795 230 821 b 328 875 272 864 298 875 l 328 875 b 405 843 358 875 384 864 b 437 766 427 821 437 795 l 437 766 l 656 766 l 656 766 b 586 967 656 842 633 909 b 410 1083 539 1026 481 1064 l 410 1175 l 246 1175 l 246 1083 b 70 967 176 1064 117 1026 b 0 766 23 909 0 842 l 0 766 b 96 534 0 675 32 598 b 328 437 160 470 238 437 z "},"%":{"ha":1088,"x_min":0,"x_max":0,"o":"m 219 1093 b 64 1029 158 1093 107 1072 b 0 875 21 986 0 935 l 0 875 b 64 720 0 815 21 763 b 219 656 107 677 158 656 l 219 656 b 373 720 279 656 330 677 b 437 875 416 763 437 815 l 437 875 b 373 1029 437 935 416 986 b 219 1093 330 1072 279 1093 z m 739 492 l 739 492 b 912 420 806 492 864 468 b 984 246 960 371 984 314 l 984 246 b 912 72 984 178 960 120 b 739 0 864 24 806 0 l 739 0 b 565 72 671 0 613 24 b 492 246 516 120 492 178 l 492 246 b 565 420 492 314 516 371 b 739 492 613 468 671 492 z m 739 328 b 680 304 715 328 696 320 b 656 246 664 288 656 268 l 656 246 b 680 188 656 223 664 204 b 739 164 696 172 715 164 l 739 164 b 796 188 761 164 780 172 b 820 246 812 204 820 223 l 820 246 b 796 304 820 268 812 288 b 739 328 780 320 761 328 z m 690 1093 l 0 0 l 191 0 l 881 1093 z m 219 930 l 219 930 b 273 875 255 930 273 911 l 273 875 b 219 820 273 838 255 820 l 219 820 b 164 875 182 820 164 838 l 164 875 b 219 930 164 911 182 930 z "},"&":{"ha":891,"x_min":0,"x_max":0,"o":"m 649 0 l 808 151 l 694 255 b 711 278 700 263 705 270 b 728 302 717 286 722 294 l 811 417 l 629 532 b 545 399 612 491 584 447 l 490 453 b 456 487 484 459 472 471 b 589 587 500 509 544 542 b 656 766 634 631 656 691 l 656 766 l 656 766 b 559 997 656 856 624 933 b 328 1093 495 1061 418 1093 l 328 1093 b 96 997 238 1093 160 1061 b 0 766 32 933 0 856 l 0 766 l 0 766 b 29 661 0 733 10 698 b 108 545 49 624 75 585 b 32 456 78 521 53 491 b 0 328 11 421 0 378 l 0 328 b 96 96 0 238 32 160 b 328 0 160 32 238 0 l 328 0 b 451 26 373 0 414 9 b 555 95 488 44 523 66 b 649 0 582 68 614 36 z m 306 637 b 244 710 281 663 261 687 b 219 766 227 734 219 752 l 219 766 l 219 766 b 251 843 219 795 230 821 b 328 875 272 864 298 875 l 328 875 b 405 843 358 875 384 864 b 437 766 427 821 437 795 l 437 766 l 437 766 b 390 677 437 727 422 697 b 319 640 358 657 335 645 b 313 638 317 640 316 639 b 306 637 311 638 309 637 z m 243 394 b 315 323 267 371 290 347 b 391 250 340 299 366 275 b 328 219 362 229 341 219 l 328 219 b 251 251 298 219 272 230 b 219 328 230 272 219 298 l 219 328 b 243 394 219 354 227 376 z "},"'":{"ha":326,"x_min":0,"x_max":0,"o":"m 0 1093 l 27 739 l 191 739 l 219 1093 z "},"(":{"ha":479,"x_min":0,"x_max":0,"o":"m 359 4 b 243 163 314 4 275 57 b 195 547 211 270 195 397 l 195 547 b 243 930 195 696 211 824 b 359 1090 275 1037 314 1090 l 323 1257 b 94 1027 233 1240 156 1163 b 0 547 31 891 0 731 l 0 547 b 94 67 0 362 31 202 b 323 -163 156 -69 233 -145 z "},")":{"ha":479,"x_min":0,"x_max":0,"o":"m 0 4 l 35 -163 b 265 67 126 -145 202 -69 b 359 547 327 202 359 362 l 359 547 b 265 1027 359 731 327 891 b 35 1257 202 1163 126 1240 l 0 1090 b 116 930 45 1090 83 1037 b 164 547 148 824 164 696 l 164 547 b 116 163 164 397 148 270 b 0 4 83 57 45 4 z "},"*":{"ha":643,"x_min":0,"x_max":0,"o":"m 189 1122 l 189 979 l 94 1045 l 0 910 l 128 821 l 0 731 l 94 597 l 189 663 l 189 520 l 353 520 l 353 663 l 448 597 l 542 731 l 414 821 l 542 910 l 448 1045 l 353 979 l 353 1122 z "},"+":{"ha":703,"x_min":0,"x_max":0,"o":"m 0 328 l 205 328 l 205 55 l 396 55 l 396 328 l 602 328 l 602 519 l 396 519 l 396 793 l 205 793 l 205 519 l 0 519 z "},",":{"ha":394,"x_min":0,"x_max":0,"o":"m 27 219 l 27 0 l 103 0 l 63 -157 l 178 -157 l 257 0 l 257 219 z "},"-":{"ha":669,"x_min":0,"x_max":0,"o":"m 0 328 l 547 328 l 547 519 l 0 519 z "},".":{"ha":394,"x_min":0,"x_max":0,"o":"m 27 230 l 27 0 l 257 0 l 257 230 z "},"/":{"ha":660,"x_min":0,"x_max":0,"o":"m 430 1230 l -38 -136 l 153 -136 l 621 1230 z "},":":{"ha":394,"x_min":0,"x_max":0,"o":"m 27 219 l 27 0 l 246 0 l 246 219 z m 27 875 l 27 656 l 246 656 l 246 875 z "},";":{"ha":394,"x_min":0,"x_max":0,"o":"m 27 219 l 27 0 l 99 0 l 61 -157 l 170 -157 l 246 0 l 246 219 z m 27 875 l 27 656 l 246 656 l 246 875 z "},"<":{"ha":900,"x_min":0,"x_max":0,"o":"m 804 878 l -16 439 l 804 0 l 804 214 l 385 439 l 804 663 z "},"=":{"ha":703,"x_min":0,"x_max":0,"o":"m 0 219 l 547 219 l 547 410 l 0 410 z m 0 547 l 547 547 l 547 739 l 0 739 z "},">":{"ha":900,"x_min":0,"x_max":0,"o":"m 0 878 l 0 663 l 420 439 l 0 214 l 0 0 l 820 439 z "},"?":{"ha":754,"x_min":0,"x_max":0,"o":"m 441 285 b 438 339 441 307 440 326 b 441 384 436 353 437 368 b 490 487 449 425 466 459 b 565 566 514 514 539 541 b 632 647 590 592 613 618 b 662 753 652 675 662 711 l 662 753 b 565 987 662 844 629 922 b 331 1084 500 1052 422 1084 l 331 1084 b 97 987 240 1084 162 1052 b 0 753 32 922 0 844 l 0 753 l 220 753 l 220 753 b 253 831 220 784 231 810 b 331 864 274 853 300 864 l 331 864 b 408 831 361 864 387 853 b 441 753 430 810 441 784 l 441 753 b 405 681 441 734 429 709 b 336 606 381 652 358 628 b 246 475 293 563 263 520 b 220 393 229 431 220 404 l 220 310 l 220 285 z m 220 202 l 220 -18 l 441 -18 l 441 202 z "},"@":{"ha":1414,"x_min":0,"x_max":0,"o":"m 684 1025 l 684 1025 b 1021 885 815 1025 928 978 b 1162 547 1115 791 1162 678 l 1162 547 b 1149 461 1162 515 1158 487 b 1118 382 1141 435 1131 409 b 1039 306 1097 340 1071 315 b 968 412 1007 297 984 332 l 968 838 l 787 838 l 787 819 b 684 838 751 831 716 838 l 684 838 b 478 752 604 838 535 809 b 393 547 422 695 393 627 l 393 547 b 478 341 393 467 422 398 b 684 256 535 285 604 256 l 684 256 b 742 267 701 256 721 260 b 798 287 763 274 782 281 b 988 115 834 180 897 122 b 1211 180 1080 107 1154 129 b 1327 345 1261 224 1300 279 b 1367 547 1354 411 1367 478 l 1367 547 b 1166 1029 1367 734 1300 895 b 684 1230 1032 1163 871 1230 l 684 1230 b 201 1029 496 1230 335 1163 b 0 547 67 895 0 734 l 0 547 b 201 64 0 359 67 198 b 684 -136 335 -70 496 -136 l 684 -136 b 974 -71 785 -136 882 -114 l 876 109 b 684 68 816 82 751 68 l 684 68 b 346 209 552 68 439 115 b 205 547 252 302 205 415 l 205 547 b 346 885 205 678 252 791 b 684 1025 439 978 552 1025 z m 684 649 l 684 649 b 756 619 712 649 736 639 b 786 547 776 599 786 575 l 786 547 b 756 474 786 518 776 494 b 684 444 736 454 712 444 l 684 444 b 611 474 655 444 631 454 b 581 547 591 494 581 518 l 581 547 b 611 619 581 575 591 599 b 684 649 631 639 655 649 z "},"A":{"ha":1011,"x_min":0,"x_max":0,"o":"m 390 382 l 476 574 l 562 382 z m 292 164 l 661 164 l 664 157 l 734 0 l 771 0 l 781 0 l 922 0 l 968 0 l 499 1042 l 475 1093 l 452 1042 l -16 0 l 31 0 l 172 0 l 180 0 l 218 0 l 288 156 z "},"B":{"ha":848,"x_min":0,"x_max":0,"o":"m 533 734 b 547 820 542 762 547 791 l 547 820 b 466 1013 547 895 520 959 b 273 1093 413 1066 348 1093 l 273 1093 l 0 1093 l 0 820 l 0 820 l 0 766 l 0 547 l 0 382 l 0 382 l 0 0 l 382 0 l 382 0 b 653 112 488 0 578 37 b 766 382 728 187 766 277 l 766 382 b 700 595 766 461 744 532 b 533 734 657 659 601 705 z m 219 766 l 219 820 l 219 820 l 219 875 l 273 875 l 273 875 b 328 820 310 875 328 857 l 328 820 b 273 766 328 784 310 766 l 273 766 z m 382 547 l 382 547 b 498 498 428 547 466 531 b 547 382 531 466 547 428 l 547 382 b 498 267 547 337 531 299 b 382 219 466 235 428 219 l 382 219 l 219 219 l 219 382 l 219 382 l 219 547 l 273 547 z "},"C":{"ha":1011,"x_min":0,"x_max":0,"o":"m 547 1093 b 160 932 396 1093 267 1040 b 0 547 53 825 0 697 l 0 547 b 160 160 0 396 53 267 b 547 0 267 53 396 0 l 547 0 b 759 43 622 0 692 14 b 933 161 825 72 883 111 l 779 315 b 547 219 714 251 637 219 l 547 219 b 315 315 456 219 379 251 b 219 547 251 379 219 456 l 219 547 b 315 778 219 637 251 714 b 547 875 379 843 456 875 l 547 875 b 779 779 636 875 713 843 l 933 933 b 759 1050 883 982 825 1021 b 547 1093 692 1079 622 1093 z "},"D":{"ha":840,"x_min":0,"x_max":0,"o":"m 219 1093 l 0 1093 l 0 0 l 219 0 l 219 0 l 219 0 b 605 160 369 0 498 53 b 766 547 712 267 766 396 l 766 547 b 605 932 766 697 712 825 b 219 1093 498 1040 369 1093 l 219 1093 z m 219 219 l 219 875 l 219 875 b 450 778 309 875 386 843 b 547 547 515 714 547 637 l 547 547 b 450 315 547 456 515 379 b 219 219 386 251 309 219 z "},"E":{"ha":754,"x_min":0,"x_max":0,"o":"m 0 1093 l 0 656 l 0 437 l 0 0 l 219 0 l 656 0 l 656 219 l 219 219 l 219 437 l 547 437 l 547 656 l 219 656 l 219 875 l 656 875 l 656 1093 z "},"F":{"ha":754,"x_min":0,"x_max":0,"o":"m 0 1093 l 0 656 l 0 437 l 0 0 l 219 0 l 219 219 l 219 437 l 547 437 l 547 656 l 219 656 l 219 875 l 656 875 l 656 1093 z "},"G":{"ha":1157,"x_min":0,"x_max":0,"o":"m 547 1093 b 160 932 396 1093 267 1040 b 0 547 53 825 0 697 l 0 547 b 160 160 0 396 53 267 b 547 0 267 53 396 0 l 547 0 b 932 160 697 0 825 53 b 1093 547 1040 267 1093 396 l 1093 547 l 1093 547 b 1082 656 1093 585 1090 621 l 983 656 l 856 656 l 547 656 l 547 437 l 856 437 b 737 280 833 374 793 321 b 547 219 681 240 618 219 l 547 219 b 315 315 456 219 379 251 b 219 547 251 379 219 456 l 219 547 b 315 778 219 637 251 714 b 547 875 379 843 456 875 l 547 875 b 779 779 636 875 713 843 l 933 933 b 759 1050 883 982 825 1021 b 547 1093 692 1079 622 1093 z "},"H":{"ha":865,"x_min":0,"x_max":0,"o":"m 0 1093 l 0 0 l 219 0 l 219 437 l 547 437 l 547 0 l 766 0 l 766 1093 l 547 1093 l 547 656 l 219 656 l 219 1093 z "},"I":{"ha":334,"x_min":0,"x_max":0,"o":"m 0 0 l 219 0 l 219 1093 l 0 1093 z "},"J":{"ha":583,"x_min":0,"x_max":0,"o":"m 260 1093 l 260 656 l 260 460 l 260 437 b 196 283 260 377 239 326 b 41 219 152 240 101 219 l 41 219 l 41 219 b 0 222 29 219 15 220 l 0 2 b 41 0 14 1 27 0 l 41 0 l 41 0 b 350 128 162 0 265 43 b 479 437 436 214 479 317 l 479 656 l 479 1093 z "},"K":{"ha":840,"x_min":0,"x_max":0,"o":"m 0 1093 l 0 0 l 219 0 l 219 401 l 498 0 l 765 0 l 390 538 l 713 1093 l 460 1093 l 219 678 l 219 1093 z "},"L":{"ha":754,"x_min":0,"x_max":0,"o":"m 0 1093 l 0 0 l 656 0 l 656 219 l 219 219 l 219 1093 z "},"M":{"ha":1166,"x_min":0,"x_max":0,"o":"m 0 1093 l 0 0 l 219 0 l 219 437 l 533 18 l 847 437 l 847 0 l 1066 0 l 1066 1093 l 533 382 z "},"N":{"ha":994,"x_min":0,"x_max":0,"o":"m 0 1093 l 0 0 l 219 0 l 219 598 l 875 0 l 875 1093 l 656 1093 l 656 496 z "},"O":{"ha":1157,"x_min":0,"x_max":0,"o":"m 547 1093 b 160 932 396 1093 267 1040 b 0 547 53 825 0 697 l 0 547 b 160 160 0 396 53 267 b 547 0 267 53 396 0 l 547 0 b 932 160 697 0 825 53 b 1093 547 1040 267 1093 396 l 1093 547 b 932 932 1093 697 1040 825 b 547 1093 825 1040 697 1093 z m 547 875 l 547 875 b 778 778 637 875 714 843 b 875 547 843 714 875 637 l 875 547 b 778 315 875 456 843 379 b 547 219 714 251 637 219 l 547 219 b 315 315 456 219 379 251 b 219 547 251 379 219 456 l 219 547 b 315 778 219 637 251 714 b 547 875 379 843 456 875 z "},"P":{"ha":848,"x_min":0,"x_max":0,"o":"m 0 0 l 219 0 l 219 328 l 382 328 l 382 328 b 653 440 488 328 578 366 b 766 711 728 515 766 605 l 766 711 b 653 981 766 816 728 906 b 382 1093 578 1056 488 1093 l 382 1093 l 219 1093 l 0 1093 l 0 711 l 0 711 l 0 328 z m 219 547 l 219 711 l 219 711 l 219 875 l 382 875 l 382 875 b 498 826 428 875 466 859 b 547 711 531 794 547 755 l 547 711 b 498 595 547 666 531 627 b 382 547 466 563 428 547 l 382 547 z "},"Q":{"ha":1157,"x_min":0,"x_max":0,"o":"m 547 1093 b 160 932 396 1093 267 1040 b 0 547 53 825 0 697 l 0 547 b 160 160 0 396 53 267 b 547 0 267 53 396 0 l 547 0 b 848 91 656 0 756 30 l 941 -1 l 1095 153 l 1002 245 b 1093 547 1063 336 1093 437 l 1093 547 b 932 932 1093 697 1040 825 b 547 1093 825 1040 697 1093 z m 546 393 l 688 251 b 547 219 644 230 596 219 l 547 219 b 315 315 456 219 379 251 b 219 547 251 379 219 456 l 219 547 b 315 778 219 637 251 714 b 547 875 379 843 456 875 l 547 875 b 778 778 637 875 714 843 b 875 547 843 714 875 637 l 875 547 b 843 406 875 497 864 450 l 701 547 z "},"R":{"ha":865,"x_min":0,"x_max":0,"o":"m 0 0 l 219 0 l 219 400 l 498 0 l 766 0 l 519 353 l 519 353 l 519 353 b 696 491 591 380 650 426 b 766 711 742 556 766 629 l 766 711 b 653 981 766 816 728 906 b 382 1093 578 1056 488 1093 l 382 1093 l 219 1093 l 0 1093 l 0 711 l 0 711 l 0 328 z m 219 547 l 219 711 l 219 711 l 219 875 l 382 875 l 382 875 b 498 826 428 875 466 859 b 547 711 531 794 547 755 l 547 711 b 498 595 547 666 531 627 b 382 547 466 563 428 547 l 382 547 z "},"S":{"ha":745,"x_min":0,"x_max":0,"o":"m 307 446 b 382 418 320 441 345 431 b 437 328 419 404 437 374 l 437 328 b 405 251 437 298 427 272 b 328 219 384 230 358 219 l 328 219 b 251 251 298 219 272 230 b 219 328 230 272 219 298 l 219 328 l 0 328 l 0 328 b 96 96 0 238 32 160 b 328 0 160 32 238 0 l 328 0 b 559 96 418 0 495 32 b 656 328 624 160 656 238 l 656 328 b 610 478 656 389 641 439 b 508 572 580 518 546 549 b 400 621 471 595 435 611 b 338 640 366 631 345 637 b 266 677 321 645 298 657 b 219 766 235 697 219 727 l 219 766 b 251 843 219 795 230 821 b 328 875 272 864 298 875 l 328 875 b 405 843 358 875 384 864 b 437 766 427 821 437 795 l 437 766 l 656 766 l 656 766 b 559 997 656 856 624 933 b 328 1093 495 1061 418 1093 l 328 1093 b 96 997 238 1093 160 1061 b 0 766 32 933 0 856 l 0 766 b 44 616 0 706 15 656 b 143 519 73 576 107 544 b 248 466 180 495 215 477 b 307 446 281 455 300 448 z "},"T":{"ha":874,"x_min":0,"x_max":0,"o":"m 273 1093 l 0 1093 l 0 875 l 273 875 l 273 0 l 492 0 l 492 875 l 766 875 l 766 1093 l 492 1093 z "},"U":{"ha":977,"x_min":0,"x_max":0,"o":"m 656 1093 l 656 656 l 656 460 l 656 437 b 591 283 656 377 634 326 b 437 219 548 240 497 219 l 437 219 b 283 283 377 219 326 240 b 219 437 240 326 219 377 l 219 460 l 219 656 l 219 1093 l 0 1093 l 0 656 l 0 437 b 128 128 0 317 43 214 b 437 0 214 43 317 0 l 437 0 b 746 128 558 0 661 43 b 875 437 832 214 875 317 l 875 656 l 875 1093 z "},"V":{"ha":1011,"x_min":0,"x_max":0,"o":"m 968 1093 l 922 1093 l 780 1093 l 771 1093 l 734 1093 l 475 517 l 216 1093 l 180 1093 l 172 1093 l 28 1093 l -16 1093 l 452 52 l 452 52 l 475 0 z "},"W":{"ha":1303,"x_min":0,"x_max":0,"o":"m -21 1093 l 416 0 l 615 508 l 819 0 l 1255 1093 l 1019 1093 l 819 598 l 617 1093 l 416 598 l 214 1093 z "},"X":{"ha":917,"x_min":0,"x_max":0,"o":"m -10 1093 l 300 547 l -10 1 l 241 0 l 427 326 l 612 0 l 864 0 l 552 547 l 864 1093 l 612 1093 l 427 768 l 241 1093 z "},"Y":{"ha":917,"x_min":0,"x_max":0,"o":"m -10 1093 l 317 490 l 317 0 l 536 0 l 536 490 l 864 1093 l 615 1093 l 427 747 l 238 1093 z "},"Z":{"ha":874,"x_min":0,"x_max":0,"o":"m 0 1093 l 0 875 l 418 875 l 0 0 l 766 0 l 766 219 l 347 219 l 766 1093 z "},"\\":{"ha":660,"x_min":0,"x_max":0,"o":"m 153 1230 l -38 1230 l 430 -136 l 621 -136 z "},"^":{"ha":677,"x_min":0,"x_max":0,"o":"m -10 569 l 179 569 l 296 768 l 413 569 l 603 569 l 296 1093 z "},"_":{"ha":1046,"x_min":0,"x_max":0,"o":"m -10 -81 l 973 -81 l 973 82 l -10 82 z "},"`":{"ha":326,"x_min":0,"x_max":0,"o":"m 0 1093 l 27 739 l 191 739 l 219 1093 z "},"a":{"ha":1011,"x_min":0,"x_max":0,"o":"m 390 382 l 476 574 l 562 382 z m 292 164 l 661 164 l 664 157 l 734 0 l 771 0 l 781 0 l 922 0 l 968 0 l 499 1042 l 475 1093 l 452 1042 l -16 0 l 31 0 l 172 0 l 180 0 l 218 0 l 288 156 z "},"b":{"ha":848,"x_min":0,"x_max":0,"o":"m 533 734 b 547 820 542 762 547 791 l 547 820 b 466 1013 547 895 520 959 b 273 1093 413 1066 348 1093 l 273 1093 l 0 1093 l 0 820 l 0 820 l 0 766 l 0 547 l 0 382 l 0 382 l 0 0 l 382 0 l 382 0 b 653 112 488 0 578 37 b 766 382 728 187 766 277 l 766 382 b 700 595 766 461 744 532 b 533 734 657 659 601 705 z m 219 766 l 219 820 l 219 820 l 219 875 l 273 875 l 273 875 b 328 820 310 875 328 857 l 328 820 b 273 766 328 784 310 766 l 273 766 z m 382 547 l 382 547 b 498 498 428 547 466 531 b 547 382 531 466 547 428 l 547 382 b 498 267 547 337 531 299 b 382 219 466 235 428 219 l 382 219 l 219 219 l 219 382 l 219 382 l 219 547 l 273 547 z "},"c":{"ha":1011,"x_min":0,"x_max":0,"o":"m 547 1093 b 160 932 396 1093 267 1040 b 0 547 53 825 0 697 l 0 547 b 160 160 0 396 53 267 b 547 0 267 53 396 0 l 547 0 b 759 43 622 0 692 14 b 933 161 825 72 883 111 l 779 315 b 547 219 714 251 637 219 l 547 219 b 315 315 456 219 379 251 b 219 547 251 379 219 456 l 219 547 b 315 778 219 637 251 714 b 547 875 379 843 456 875 l 547 875 b 779 779 636 875 713 843 l 933 933 b 759 1050 883 982 825 1021 b 547 1093 692 1079 622 1093 z "},"d":{"ha":840,"x_min":0,"x_max":0,"o":"m 219 1093 l 0 1093 l 0 0 l 219 0 l 219 0 l 219 0 b 605 160 369 0 498 53 b 766 547 712 267 766 396 l 766 547 b 605 932 766 697 712 825 b 219 1093 498 1040 369 1093 l 219 1093 z m 219 219 l 219 875 l 219 875 b 450 778 309 875 386 843 b 547 547 515 714 547 637 l 547 547 b 450 315 547 456 515 379 b 219 219 386 251 309 219 z "},"e":{"ha":754,"x_min":0,"x_max":0,"o":"m 0 1093 l 0 656 l 0 437 l 0 0 l 219 0 l 656 0 l 656 219 l 219 219 l 219 437 l 547 437 l 547 656 l 219 656 l 219 875 l 656 875 l 656 1093 z "},"f":{"ha":754,"x_min":0,"x_max":0,"o":"m 0 1093 l 0 656 l 0 437 l 0 0 l 219 0 l 219 219 l 219 437 l 547 437 l 547 656 l 219 656 l 219 875 l 656 875 l 656 1093 z "},"g":{"ha":1157,"x_min":0,"x_max":0,"o":"m 547 1093 b 160 932 396 1093 267 1040 b 0 547 53 825 0 697 l 0 547 b 160 160 0 396 53 267 b 547 0 267 53 396 0 l 547 0 b 932 160 697 0 825 53 b 1093 547 1040 267 1093 396 l 1093 547 l 1093 547 b 1082 656 1093 585 1090 621 l 983 656 l 856 656 l 547 656 l 547 437 l 856 437 b 737 280 833 374 793 321 b 547 219 681 240 618 219 l 547 219 b 315 315 456 219 379 251 b 219 547 251 379 219 456 l 219 547 b 315 778 219 637 251 714 b 547 875 379 843 456 875 l 547 875 b 779 779 636 875 713 843 l 933 933 b 759 1050 883 982 825 1021 b 547 1093 692 1079 622 1093 z "},"h":{"ha":865,"x_min":0,"x_max":0,"o":"m 0 1093 l 0 0 l 219 0 l 219 437 l 547 437 l 547 0 l 766 0 l 766 1093 l 547 1093 l 547 656 l 219 656 l 219 1093 z "},"i":{"ha":334,"x_min":0,"x_max":0,"o":"m 0 0 l 219 0 l 219 1093 l 0 1093 z "},"j":{"ha":583,"x_min":0,"x_max":0,"o":"m 260 1093 l 260 656 l 260 460 l 260 437 b 196 283 260 377 239 326 b 41 219 152 240 101 219 l 41 219 l 41 219 b 0 222 29 219 15 220 l 0 2 b 41 0 14 1 27 0 l 41 0 l 41 0 b 350 128 162 0 265 43 b 479 437 436 214 479 317 l 479 656 l 479 1093 z "},"k":{"ha":840,"x_min":0,"x_max":0,"o":"m 0 1093 l 0 0 l 219 0 l 219 401 l 498 0 l 765 0 l 390 538 l 713 1093 l 460 1093 l 219 678 l 219 1093 z "},"l":{"ha":754,"x_min":0,"x_max":0,"o":"m 0 1093 l 0 0 l 656 0 l 656 219 l 219 219 l 219 1093 z "},"m":{"ha":1166,"x_min":0,"x_max":0,"o":"m 0 1093 l 0 0 l 219 0 l 219 437 l 533 18 l 847 437 l 847 0 l 1066 0 l 1066 1093 l 533 382 z "},"n":{"ha":994,"x_min":0,"x_max":0,"o":"m 0 1093 l 0 0 l 219 0 l 219 598 l 875 0 l 875 1093 l 656 1093 l 656 496 z "},"o":{"ha":1157,"x_min":0,"x_max":0,"o":"m 547 1093 b 160 932 396 1093 267 1040 b 0 547 53 825 0 697 l 0 547 b 160 160 0 396 53 267 b 547 0 267 53 396 0 l 547 0 b 932 160 697 0 825 53 b 1093 547 1040 267 1093 396 l 1093 547 b 932 932 1093 697 1040 825 b 547 1093 825 1040 697 1093 z m 547 875 l 547 875 b 778 778 637 875 714 843 b 875 547 843 714 875 637 l 875 547 b 778 315 875 456 843 379 b 547 219 714 251 637 219 l 547 219 b 315 315 456 219 379 251 b 219 547 251 379 219 456 l 219 547 b 315 778 219 637 251 714 b 547 875 379 843 456 875 z "},"p":{"ha":848,"x_min":0,"x_max":0,"o":"m 0 0 l 219 0 l 219 328 l 382 328 l 382 328 b 653 440 488 328 578 366 b 766 711 728 515 766 605 l 766 711 b 653 981 766 816 728 906 b 382 1093 578 1056 488 1093 l 382 1093 l 219 1093 l 0 1093 l 0 711 l 0 711 l 0 328 z m 219 547 l 219 711 l 219 711 l 219 875 l 382 875 l 382 875 b 498 826 428 875 466 859 b 547 711 531 794 547 755 l 547 711 b 498 595 547 666 531 627 b 382 547 466 563 428 547 l 382 547 z "},"q":{"ha":1157,"x_min":0,"x_max":0,"o":"m 547 1093 b 160 932 396 1093 267 1040 b 0 547 53 825 0 697 l 0 547 b 160 160 0 396 53 267 b 547 0 267 53 396 0 l 547 0 b 848 91 656 0 756 30 l 941 -1 l 1095 153 l 1002 245 b 1093 547 1063 336 1093 437 l 1093 547 b 932 932 1093 697 1040 825 b 547 1093 825 1040 697 1093 z m 546 393 l 688 251 b 547 219 644 230 596 219 l 547 219 b 315 315 456 219 379 251 b 219 547 251 379 219 456 l 219 547 b 315 778 219 637 251 714 b 547 875 379 843 456 875 l 547 875 b 778 778 637 875 714 843 b 875 547 843 714 875 637 l 875 547 b 843 406 875 497 864 450 l 701 547 z "},"r":{"ha":865,"x_min":0,"x_max":0,"o":"m 0 0 l 219 0 l 219 400 l 498 0 l 766 0 l 519 353 l 519 353 l 519 353 b 696 491 591 380 650 426 b 766 711 742 556 766 629 l 766 711 b 653 981 766 816 728 906 b 382 1093 578 1056 488 1093 l 382 1093 l 219 1093 l 0 1093 l 0 711 l 0 711 l 0 328 z m 219 547 l 219 711 l 219 711 l 219 875 l 382 875 l 382 875 b 498 826 428 875 466 859 b 547 711 531 794 547 755 l 547 711 b 498 595 547 666 531 627 b 382 547 466 563 428 547 l 382 547 z "},"s":{"ha":745,"x_min":0,"x_max":0,"o":"m 307 446 b 382 418 320 441 345 431 b 437 328 419 404 437 374 l 437 328 b 405 251 437 298 427 272 b 328 219 384 230 358 219 l 328 219 b 251 251 298 219 272 230 b 219 328 230 272 219 298 l 219 328 l 0 328 l 0 328 b 96 96 0 238 32 160 b 328 0 160 32 238 0 l 328 0 b 559 96 418 0 495 32 b 656 328 624 160 656 238 l 656 328 b 610 478 656 389 641 439 b 508 572 580 518 546 549 b 400 621 471 595 435 611 b 338 640 366 631 345 637 b 266 677 321 645 298 657 b 219 766 235 697 219 727 l 219 766 b 251 843 219 795 230 821 b 328 875 272 864 298 875 l 328 875 b 405 843 358 875 384 864 b 437 766 427 821 437 795 l 437 766 l 656 766 l 656 766 b 559 997 656 856 624 933 b 328 1093 495 1061 418 1093 l 328 1093 b 96 997 238 1093 160 1061 b 0 766 32 933 0 856 l 0 766 b 44 616 0 706 15 656 b 143 519 73 576 107 544 b 248 466 180 495 215 477 b 307 446 281 455 300 448 z "},"t":{"ha":874,"x_min":0,"x_max":0,"o":"m 273 1093 l 0 1093 l 0 875 l 273 875 l 273 0 l 492 0 l 492 875 l 766 875 l 766 1093 l 492 1093 z "},"u":{"ha":977,"x_min":0,"x_max":0,"o":"m 656 1093 l 656 656 l 656 460 l 656 437 b 591 283 656 377 634 326 b 437 219 548 240 497 219 l 437 219 b 283 283 377 219 326 240 b 219 437 240 326 219 377 l 219 460 l 219 656 l 219 1093 l 0 1093 l 0 656 l 0 437 b 128 128 0 317 43 214 b 437 0 214 43 317 0 l 437 0 b 746 128 558 0 661 43 b 875 437 832 214 875 317 l 875 656 l 875 1093 z "},"v":{"ha":1011,"x_min":0,"x_max":0,"o":"m 968 1093 l 922 1093 l 780 1093 l 771 1093 l 734 1093 l 475 517 l 216 1093 l 180 1093 l 172 1093 l 28 1093 l -16 1093 l 452 52 l 452 52 l 475 0 z "},"w":{"ha":1303,"x_min":0,"x_max":0,"o":"m -21 1093 l 416 0 l 615 508 l 819 0 l 1255 1093 l 1019 1093 l 819 598 l 617 1093 l 416 598 l 214 1093 z "},"x":{"ha":917,"x_min":0,"x_max":0,"o":"m -10 1093 l 300 547 l -10 1 l 241 0 l 427 326 l 612 0 l 864 0 l 552 547 l 864 1093 l 612 1093 l 427 768 l 241 1093 z "},"y":{"ha":917,"x_min":0,"x_max":0,"o":"m -10 1093 l 317 490 l 317 0 l 536 0 l 536 490 l 864 1093 l 615 1093 l 427 747 l 238 1093 z "},"z":{"ha":874,"x_min":0,"x_max":0,"o":"m 0 1093 l 0 875 l 418 875 l 0 0 l 766 0 l 766 219 l 347 219 l 766 1093 z "},"|":{"ha":471,"x_min":0,"x_max":0,"o":"m 82 1230 l 82 -136 l 246 -136 l 246 1230 z "},"‘":{"ha":317,"x_min":0,"x_max":0,"o":"m 0 1093 l 27 739 l 191 739 l 219 1093 z "},"’":{"ha":317,"x_min":0,"x_max":0,"o":"m 0 1093 l 27 739 l 191 739 l 219 1093 z "},"“":{"ha":540,"x_min":0,"x_max":0,"o":"m 437 718 l 437 936 l 374 936 l 408 1093 l 313 1093 l 246 936 l 246 718 z m 191 718 l 191 936 l 128 936 l 162 1093 l 66 1093 l 0 936 l 0 718 z "},"”":{"ha":540,"x_min":0,"x_max":0,"o":"m 0 1093 l 0 875 l 63 875 l 29 718 l 125 718 l 191 875 l 191 1093 z m 246 1093 l 246 875 l 309 875 l 275 718 l 371 718 l 437 875 l 437 1093 z "},"„":{"ha":540,"x_min":0,"x_max":0,"o":"m 437 718 l 437 936 l 374 936 l 408 1093 l 313 1093 l 246 936 l 246 718 z m 191 718 l 191 936 l 128 936 l 162 1093 l 66 1093 l 0 936 l 0 718 z "},"‟":{"ha":540,"x_min":0,"x_max":0,"o":"m 0 1093 l 0 875 l 63 875 l 29 718 l 125 718 l 191 875 l 191 1093 z m 246 1093 l 246 875 l 309 875 l 275 718 l 371 718 l 437 875 l 437 1093 z "},"′":{"ha":291,"x_min":0,"x_max":0,"o":"m 0 1093 l 0 875 l 63 875 l 29 718 l 125 718 l 191 875 l 191 1093 z "},"″":{"ha":540,"x_min":0,"x_max":0,"o":"m 437 718 l 437 936 l 374 936 l 408 1093 l 313 1093 l 246 936 l 246 718 z m 191 718 l 191 936 l 128 936 l 162 1093 l 66 1093 l 0 936 l 0 718 z "},"‶":{"ha":540,"x_min":0,"x_max":0,"o":"m 0 1093 l 0 875 l 63 875 l 29 718 l 125 718 l 191 875 l 191 1093 z m 246 1093 l 246 875 l 309 875 l 275 718 l 371 718 l 437 875 l 437 1093 z "}}}
